<svg xmlns="http://www.w3.org/2000/svg" width="52" height="52" viewBox="0 0 52 52">
<path fill="#ffffff" stroke="#ce0033" stroke-width=".046" d="M15.598 1.983c-.03-.075-.098-.128-.178-.138-.08-.01-.16.026-.206.09-.278.39-.642.52-1.065.67-.34.122-.693.248-1.074.52-.54.388-.785.915-.662 1.414l-.013.016c-.224-.327-.47-.628-.727-.898-1.207-1.26-2.895-2.017-4.63-2.078-.076-.003-.154-.004-.23-.004-1.938 0-3.792.866-5.087 2.376C.436 5.454-.134 7.41.158 9.316c.025.16.055.32.09.48.478 2.096 1.694 3.69 3.34 4.375.405.17.814.255 1.215.255.997 0 1.867-.533 2.388-1.462.2-.353.327-.72.38-1.087.032-.217.01-.434-.01-.644-.022-.216-.042-.42-.01-.626.075-.472.405-.753.882-.753.136 0 .274.022.413.066-.163.296-.31.58-.438.843-.273.558-.46 1.02-.56 1.373-.06.217-.22.796.172 1.07.124.085.282.116.447.085.148-.026.6-.11 1.883-1.57.344-.393.715-.847 1.103-1.35.996-.335 1.77-1.17 1.976-2.13.05-.24.072-.495.063-.762.373-.576.7-1.114 1.03-1.692.005-.01.01-.023.017-.035.478-.13.89-.502 1.13-1.022.354-.758.328-1.733-.072-2.745zm-5.384 3.593c-.173.274-.47.438-.794.438-.177 0-.35-.05-.5-.145-.21-.134-.358-.342-.414-.586-.055-.245-.013-.496.12-.708.174-.274.47-.438.796-.438.176 0 .348.05.498.144.212.134.36.342.415.586.055.244.013.496-.12.708zm1.217 1.7c.475-.7.977-1.394 1.453-2.012.077.07.164.138.257.203.155.107.317.19.483.247-.402.688-.835 1.37-1.358 2.14-.86 1.267-1.755 2.445-2.518 3.315-.427.485-.8.86-1.088 1.092.11-.355.322-.842.618-1.42.528-1.033 1.293-2.3 2.153-3.567zm-8.323-.007c-.176 0-.35-.05-.5-.146-.21-.133-.358-.34-.413-.586-.056-.243-.013-.495.12-.707.173-.273.47-.437.795-.437.176 0 .348.05.498.144.438.276.57.856.294 1.293-.173.275-.47.44-.795.44zm-.983 2.064c.173-.275.47-.44.795-.44.175 0 .347.05.497.146.212.133.36.34.415.586.056.244.013.495-.12.707-.173.274-.47.438-.795.438-.176 0-.35-.05-.5-.143-.21-.134-.358-.342-.414-.586-.055-.243-.012-.494.12-.706zm3.004-5.57c.173-.274.47-.438.794-.438.176 0 .35.05.5.144.436.276.568.856.293 1.293-.173.275-.47.44-.795.44-.176 0-.35-.05-.5-.146-.21-.133-.358-.34-.413-.585-.056-.245-.013-.496.12-.708zm0 0" transform="matrix(3.24908 0 0 3.24908 .006 .005)"/>
</svg>