<?xml version="1.0" standalone="no"?>
<!DOCTYPE svg PUBLIC "-//W3C//DTD SVG 20010904//EN"
 "http://www.w3.org/TR/2001/REC-SVG-20010904/DTD/svg10.dtd">
<svg version="1.0" xmlns="http://www.w3.org/2000/svg"
 width="512.000000pt" height="512.000000pt" viewBox="0 0 512.000000 512.000000"
 preserveAspectRatio="xMidYMid meet">
<metadata>
Created by potrace 1.14, written by Peter Selinger 2001-2017
</metadata>
<g transform="translate(0.000000,512.000000) scale(0.100000,-0.100000)"
fill="#000000" stroke="none">
<path d="M2379 5056 c-2 -2 -38 -6 -79 -10 -41 -3 -86 -8 -100 -11 -13 -2 -42
-7 -65 -11 -180 -26 -471 -119 -665 -212 -346 -166 -690 -447 -926 -757 -113
-149 -236 -368 -308 -548 -36 -89 -91 -261 -99 -307 -3 -14 -10 -43 -15 -65
-6 -22 -14 -60 -17 -85 -4 -24 -8 -47 -10 -50 -1 -3 -6 -36 -10 -75 -4 -38 -9
-83 -11 -100 -6 -47 -6 -426 -1 -460 3 -16 9 -55 12 -85 20 -176 103 -505 137
-547 6 -7 8 -13 5 -13 -6 0 25 -74 81 -190 248 -518 736 -972 1288 -1198 156
-64 366 -127 484 -146 19 -3 46 -8 60 -11 14 -3 45 -8 70 -11 25 -3 56 -8 70
-11 54 -12 477 -10 570 2 150 21 181 26 250 41 491 111 901 336 1255 689 194
194 334 384 451 615 45 89 121 274 144 350 7 25 19 64 26 88 19 59 61 274 69
347 3 33 8 80 11 105 11 107 6 390 -11 514 -2 17 -7 54 -10 81 -4 28 -11 70
-17 95 -5 25 -12 58 -15 75 -33 197 -190 563 -332 775 -401 599 -1024 994
-1746 1105 -98 16 -534 32 -546 21z m358 -530 c336 -28 667 -157 948 -369 79
-60 296 -271 345 -336 14 -18 41 -54 61 -79 56 -72 152 -237 196 -337 118
-265 167 -500 167 -810 0 -113 -11 -292 -18 -304 -2 -3 -7 -27 -10 -53 -4 -26
-9 -53 -11 -60 -2 -7 -6 -24 -9 -38 -37 -212 -199 -547 -360 -745 -276 -340
-612 -560 -1016 -669 -182 -48 -481 -73 -645 -52 -161 20 -151 19 -281 51
-614 154 -1143 652 -1338 1260 -69 217 -90 358 -90 615 0 161 7 260 24 351 6
30 13 68 16 84 2 17 16 68 30 115 77 259 195 482 359 680 130 156 379 374 510
446 283 157 528 234 789 251 56 3 102 6 103 7 4 4 154 -2 230 -8z"/>
<path d="M2199 3593 c-4 -141 -1 -694 4 -699 5 -5 386 -7 720 -4 4 0 7 164 7
365 l0 365 -365 0 -365 0 -1 -27z"/>
<path d="M2283 2312 c-70 -2 -83 -5 -84 -20 -1 -22 -1 -660 0 -689 l1 -23 365
0 365 0 0 368 0 367 -282 0 c-156 0 -320 -1 -365 -3z"/>
</g>
</svg>
